# xmcd CD database file
#
# Track frame offsets:
#	150
#	14061
#	27643
#	41725
#	54287
#	67094
#	80456
#	93300
#	104817
#	118823
#	132590
#	147229
#	160044
#	173326
#	186855
#	200860
#	214414
#	226959
#	240949
#	254771
#	268660
#
# Disc length: 3764 seconds
#
# Revision: 0
# Processed by: cddbd v1.5.1PL0 Copyright (c) Steve Scherf et al.
# Submitted via: CDex 1.50
#
DISCID=400eb215
DTITLE=Billie Holiday - Complete Columbia Golden Years Recordings Vol. 4a
DYEAR=1939
DGENRE=Jazz
TTITLE0=What Shall I Say?
TTITLE1=It's Easy to Blame the Weather
TTITLE2=More Than You Know
TTITLE3=Sugar
TTITLE4=You're Too Lovely to Last
TTITLE5=Under A Blue Jungle Moon
TTITLE6=Everthing Happens For the Best
TTITLE7=Why Did I Always Depend on You?
TTITLE8=Long Gone Blues
TTITLE9=Some Other Spring
TTITLE10=Our Love Is Different
TTITLE11=Them There Eyes
TTITLE12=Swing, Brother, Swing
TTITLE13=Night and Day
TTITLE14=The Man I Love
TTITLE15=You Just A No-Account
TTITLE16=You're A Lucky Guy
TTITLE17=More Than You Know
TTITLE18=You're Too Lovely to Last
TTITLE19=Under A Blue Jungle Moon
TTITLE20=Night and Day
EXTD=YEAR: 1939
EXTT0=
EXTT1=
EXTT2=
EXTT3=
EXTT4=
EXTT5=
EXTT6=
EXTT7=
EXTT8=
EXTT9=
EXTT10=
EXTT11=
EXTT12=
EXTT13=
EXTT14=
EXTT15=
EXTT16=
EXTT17=
EXTT18=
EXTT19=
EXTT20=
PLAYORDER=
